<svg xmlns="http://www.w3.org/2000/svg" xmlns:xlink="http://www.w3.org/1999/xlink" width="100" zoomAndPan="magnify" viewBox="0 0 75 30.000001" height="40" preserveAspectRatio="xMidYMid meet" version="1.0"><defs><g/></defs><g fill="#0469a1" fill-opacity="1"><g transform="translate(1.980846, 18.145163)"><g><path d="M 1.988281 -15.925781 L 1.988281 -8.980469 C 3.09375 -9.9375 3.949219 -10.617188 5.761719 -10.691406 L 5.761719 -12.878906 Z M 5.660156 -9.910156 C 4.378906 -9.910156 3.019531 -9.230469 1.988281 -8.023438 L 1.988281 -1.484375 C 2.691406 -0.957031 3.496094 -0.679688 4.679688 -0.679688 C 5.105469 -0.679688 5.433594 -0.703125 5.761719 -0.78125 L 5.761719 -5.007812 C 6.691406 -6.1875 7.949219 -6.765625 9.28125 -6.917969 C 8.679688 -8.855469 7.042969 -9.910156 5.660156 -9.910156 Z M 8.527344 -9.734375 C 9.910156 -8.476562 10.363281 -6.917969 10.363281 -5.410156 C 10.363281 -2.265625 8.074219 0.226562 4.730469 0.226562 C 3.496094 0.226562 2.363281 0 1.132812 -0.476562 L 4.78125 2.492188 C 6.464844 3.019531 7.421875 3.195312 8.402344 3.195312 C 11.773438 3.195312 14.136719 0.878906 14.136719 -2.464844 C 14.136719 -4.277344 13.433594 -5.886719 12.175781 -6.867188 Z M 8.527344 -9.734375 "/></g></g></g><g fill="#0469a1" fill-opacity="1"><g transform="translate(16.922174, 18.145163)"><g><path d="M 5.308594 -9.835938 C 2.71875 -9.835938 0.730469 -7.671875 0.730469 -5.234375 C 0.730469 -2.992188 2.363281 -0.980469 4.878906 -0.703125 C 4.703125 -1.308594 4.679688 -1.585938 4.679688 -2.0625 C 4.679688 -4.554688 6.691406 -6.691406 9.207031 -6.691406 C 9.332031 -6.691406 9.507812 -6.691406 9.683594 -6.667969 C 8.980469 -8.679688 7.246094 -9.835938 5.308594 -9.835938 Z M 8.878906 -9.410156 C 10.164062 -8.226562 10.792969 -6.894531 10.792969 -5.28125 C 10.792969 -2.214844 8.277344 0.226562 5.359375 0.226562 C 4.175781 0.226562 3.070312 -0.152344 2.039062 -0.855469 L 6.011719 2.289062 C 6.691406 2.816406 8.125 3.371094 9.257812 3.371094 C 12.328125 3.371094 14.742188 0.878906 14.742188 -2.113281 C 14.742188 -3.824219 13.988281 -5.359375 12.652344 -6.414062 Z M 8.878906 -9.410156 "/></g></g></g><g fill="#0469a1" fill-opacity="1"><g transform="translate(32.391733, 18.145163)"><g><path d="M 5.308594 -9.835938 C 2.71875 -9.835938 0.730469 -7.671875 0.730469 -5.234375 C 0.730469 -2.992188 2.363281 -0.980469 4.878906 -0.703125 C 4.703125 -1.308594 4.679688 -1.585938 4.679688 -2.0625 C 4.679688 -4.554688 6.691406 -6.691406 9.207031 -6.691406 C 9.332031 -6.691406 9.507812 -6.691406 9.683594 -6.667969 C 8.980469 -8.679688 7.246094 -9.835938 5.308594 -9.835938 Z M 8.878906 -9.410156 C 10.164062 -8.226562 10.792969 -6.894531 10.792969 -5.28125 C 10.792969 -2.214844 8.277344 0.226562 5.359375 0.226562 C 4.175781 0.226562 3.070312 -0.152344 2.039062 -0.855469 L 6.011719 2.289062 C 6.691406 2.816406 8.125 3.371094 9.257812 3.371094 C 12.328125 3.371094 14.742188 0.878906 14.742188 -2.113281 C 14.742188 -3.824219 13.988281 -5.359375 12.652344 -6.414062 Z M 8.878906 -9.410156 "/></g></g></g><g fill="#0469a1" fill-opacity="1"><g transform="translate(47.861291, 18.145163)"><g><path d="M 1.9375 -15.925781 L 1.9375 0 L 1.03125 0 L 4.828125 2.96875 L 5.710938 2.96875 L 5.710938 -2.390625 L 1.960938 -5.535156 L 5.710938 -8.828125 L 5.710938 -12.878906 Z M 3.144531 -5.535156 L 9.835938 0 L 8.601562 0 L 13.609375 2.96875 L 14.917969 2.96875 L 6.917969 -3.722656 L 11.898438 -8.074219 L 8.828125 -10.566406 Z M 3.144531 -5.535156 "/></g></g></g><g fill="#0469a1" fill-opacity="1"><g transform="translate(61.494627, 18.145163)"><g><path d="M 3.445312 -14.011719 L 3.445312 -10.363281 L 6.3125 -10.363281 L 6.3125 -9.636719 L 3.445312 -9.636719 L 3.445312 -2.71875 C 3.445312 -1.007812 4.101562 -0.652344 5.28125 -0.652344 C 5.785156 -0.652344 6.136719 -0.703125 7.121094 -1.082031 L 7.121094 -0.300781 C 6.085938 0.125 5.609375 0.175781 5.054688 0.175781 C 4.328125 0.175781 3.847656 0 3.347656 -0.402344 L 6.816406 2.441406 C 7.421875 2.941406 8.050781 3.269531 8.679688 3.269531 C 9.359375 3.269531 10.164062 3.070312 10.96875 2.792969 L 10.96875 1.863281 L 7.21875 -1.082031 L 7.21875 -6.617188 L 10.136719 -6.617188 L 10.136719 -7.371094 L 7.21875 -9.636719 L 7.21875 -10.992188 Z M -0.226562 -9.636719 L 2.515625 -7.496094 L 2.515625 -9.636719 Z M -0.226562 -9.636719 "/></g></g></g></svg>